<svg width="522" height="87" viewBox="0 0 522 87" fill="none" xmlns="http://www.w3.org/2000/svg">
<path d="M259.814 0.554688C264.2 0.484507 268.748 0.551452 273.152 0.551758L296.182 0.561523C296.124 3.09571 296.188 5.98379 296.188 8.47559L296.188 18.0566L296.188 23.8076C296.188 25.1293 296.229 26.5348 296.112 27.7822C295.54 33.8891 292.943 38.7966 288.516 42.7119C286.804 44.1062 284.977 45.4596 283.134 46.8174C281.406 48.0905 279.663 49.3679 278.005 50.6777C277.339 50.1399 276.448 49.5062 275.864 49.0684H275.865L270.562 45.0693C268.94 43.8458 267.545 42.8682 266.159 41.4971L265.882 41.2178C263.409 38.6233 261.606 35.4158 260.636 31.8965L260.453 31.1885C259.695 28.005 259.823 25.8265 259.823 22.4971L259.824 15.8418L259.814 0.554688Z" stroke="#FCD772" stroke-width="1.04442"/>
<path d="M278.999 15.0986V8.45834L279.44 8.01709H281.238L281.679 8.45834V10.1695H280.85V8.92111L280.775 8.84577H279.892L279.817 8.92111V14.6466L279.892 14.7219H280.775L280.85 14.6466V13.3981H281.679V15.1093L281.238 15.5506H279.44L278.999 15.0986Z" fill="#FCD772"/>
<path d="M277.096 8.01709H277.924V15.5506H277.096V12.8062L275.298 9.31931V15.5506H274.47V8.01709H275.524L277.096 11.0843V8.01709Z" fill="#FCD772"/>
<path d="M278.681 37.1982V29.7672L279.174 29.2734H281.186L281.68 29.7672V31.6822H280.752V30.2851L280.668 30.2008H279.68L279.596 30.2851V36.6924L279.68 36.7767H280.668L280.752 36.6924V35.2953H281.68V37.2103L281.186 37.7041H279.174L278.681 37.1982Z" fill="#FCD772"/>
<path d="M274.47 37.2109V35.296H275.397V36.6931L275.481 36.7774H276.469L276.553 36.6931V34.0434L276.469 33.9591H274.976L274.482 33.4653V29.7799L274.976 29.2861H276.987L277.481 29.7799V31.6949H276.553V30.2978L276.469 30.2135H275.481L275.397 30.2978V32.9474L275.481 33.0318H276.975L277.469 33.5255V37.2109L276.975 37.7047H274.964L274.47 37.2109Z" fill="#FCD772"/>
<path d="M259.988 24.4618L299.541 17.499" stroke="#FCD772" stroke-width="1.04442" stroke-miterlimit="10"/>
<path d="M285.029 24.2879L281.599 20.8574" stroke="#FCD772" stroke-width="1.04442" stroke-miterlimit="10"/>
<path d="M282.519 24.2877L279.458 21.2256" stroke="#FCD772" stroke-width="1.04442" stroke-miterlimit="10"/>
<path d="M280.012 24.2879L277.341 21.6167" stroke="#FCD772" stroke-width="1.04442" stroke-miterlimit="10"/>
<path d="M277.503 24.2877L275.191 21.9766" stroke="#FCD772" stroke-width="1.04442" stroke-miterlimit="10"/>
<path d="M274.995 24.2878L273.059 22.3525" stroke="#FCD772" stroke-width="1.04442" stroke-miterlimit="10"/>
<path d="M272.486 24.288L270.955 22.7573" stroke="#FCD772" stroke-width="1.04442" stroke-miterlimit="10"/>
<path d="M239.125 50.333C238.414 50.333 238.035 50.0013 237.987 49.3377L237.205 44.0059C237.205 43.9111 237.158 43.8163 237.063 43.7215C236.968 43.6267 236.85 43.5793 236.708 43.5793H230.452C230.309 43.5793 230.191 43.6267 230.096 43.7215C230.001 43.8163 229.954 43.9111 229.954 44.0059L229.243 49.3377C229.196 50.0013 228.817 50.333 228.106 50.333H216.944C216.186 50.333 215.878 49.9539 216.02 49.1955L226.115 1.49304C226.257 0.876913 226.66 0.568848 227.324 0.568848H240.262C240.926 0.568848 241.329 0.876913 241.471 1.49304L251.566 49.1955V49.4799C251.566 50.0486 251.234 50.333 250.571 50.333H239.125ZM231.518 32.9156C231.518 33.1999 231.636 33.3421 231.873 33.3421H235.215C235.547 33.3421 235.665 33.1999 235.57 32.9156L233.651 20.1191C233.603 19.9295 233.532 19.8347 233.437 19.8347C233.343 19.8347 233.272 19.9295 233.224 20.1191L231.518 32.9156Z" fill="#F4EFE6"/>
<path d="M201.21 1.63522C201.21 1.30346 201.305 1.04279 201.495 0.853214C201.684 0.663636 201.945 0.568848 202.277 0.568848H213.367C213.699 0.568848 213.959 0.663636 214.149 0.853214C214.339 1.04279 214.433 1.30346 214.433 1.63522V49.2666C214.433 49.5984 214.339 49.8591 214.149 50.0486C213.959 50.2382 213.699 50.333 213.367 50.333H200.713C200.097 50.333 199.717 50.0249 199.575 49.4088L194.172 27.868C194.125 27.7259 194.03 27.6548 193.888 27.6548C193.746 27.6548 193.675 27.7496 193.675 27.9391L193.817 49.2666C193.817 49.5984 193.722 49.8591 193.532 50.0486C193.343 50.2382 193.082 50.333 192.75 50.333H181.66C181.328 50.333 181.068 50.2382 180.878 50.0486C180.689 49.8591 180.594 49.5984 180.594 49.2666V1.63522C180.594 1.30346 180.689 1.04279 180.878 0.853214C181.068 0.663636 181.328 0.568848 181.66 0.568848H194.172C194.788 0.568848 195.168 0.876913 195.31 1.49304L200.784 23.1049C200.831 23.2945 200.926 23.3893 201.068 23.3893C201.21 23.3893 201.281 23.2945 201.281 23.1049L201.21 1.63522Z" fill="#F4EFE6"/>
<path d="M166.004 50.333C165.672 50.333 165.411 50.2382 165.222 50.0486C165.032 49.8591 164.938 49.5984 164.938 49.2666V1.63522C164.938 1.30346 165.032 1.04279 165.222 0.853214C165.411 0.663636 165.672 0.568848 166.004 0.568848H177.236C177.568 0.568848 177.829 0.663636 178.018 0.853214C178.208 1.04279 178.303 1.30346 178.303 1.63522V49.2666C178.303 49.5984 178.208 49.8591 178.018 50.0486C177.829 50.2382 177.568 50.333 177.236 50.333H166.004Z" fill="#F4EFE6"/>
<path d="M135.698 50.333C135.366 50.333 135.106 50.2382 134.916 50.0486C134.727 49.8591 134.632 49.5984 134.632 49.2666V1.63522C134.632 1.30346 134.727 1.04279 134.916 0.853214C135.106 0.663636 135.366 0.568848 135.698 0.568848H146.931C147.262 0.568848 147.523 0.663636 147.713 0.853214C147.902 1.04279 147.997 1.30346 147.997 1.63522V38.4607C147.997 38.7451 148.139 38.8873 148.424 38.8873H162.286C162.618 38.8873 162.879 38.982 163.069 39.1716C163.258 39.3612 163.353 39.6219 163.353 39.9536V49.2666C163.353 49.5984 163.258 49.8591 163.069 50.0486C162.879 50.2382 162.618 50.333 162.286 50.333H135.698Z" fill="#F4EFE6"/>
<path d="M116.974 50.9016C112.187 50.9016 108.348 49.5272 105.457 46.7783C102.613 44.0294 101.191 40.3327 101.191 35.688V15.2136C101.191 10.569 102.613 6.87219 105.457 4.12331C108.348 1.37444 112.187 0 116.974 0C121.761 0 125.576 1.37444 128.42 4.12331C131.311 6.87219 132.756 10.569 132.756 15.2136V35.688C132.756 40.3327 131.311 44.0294 128.42 46.7783C125.576 49.5272 121.761 50.9016 116.974 50.9016ZM116.974 39.4559C117.732 39.4559 118.324 39.1715 118.751 38.6028C119.178 38.034 119.391 37.252 119.391 36.2567V14.6449C119.391 13.6496 119.178 12.8676 118.751 12.2989C118.324 11.7301 117.732 11.4458 116.974 11.4458C116.215 11.4458 115.623 11.7301 115.196 12.2989C114.77 12.8676 114.557 13.6496 114.557 14.6449V36.2567C114.557 37.252 114.77 38.034 115.196 38.6028C115.623 39.1715 116.215 39.4559 116.974 39.4559Z" fill="#F4EFE6"/>
<path d="M87.5965 50.333C86.9804 50.333 86.6012 50.0249 86.459 49.4088L82.1224 31.5648C82.0277 31.3278 81.9329 31.2094 81.8381 31.2094C81.6485 31.2094 81.5537 31.3515 81.5537 31.6359V49.2666C81.5537 49.5984 81.4589 49.8591 81.2693 50.0486C81.0798 50.2382 80.8191 50.333 80.4873 50.333H69.2549C68.9231 50.333 68.6624 50.2382 68.4728 50.0486C68.2833 49.8591 68.1885 49.5984 68.1885 49.2666V1.63522C68.1885 1.30346 68.2833 1.04279 68.4728 0.853214C68.6624 0.663636 68.9231 0.568848 69.2549 0.568848H85.2505C88.0941 0.568848 90.6061 1.25607 92.7862 2.63051C95.0137 3.95755 96.7436 5.82963 97.9759 8.24675C99.2081 10.6165 99.8243 13.3416 99.8243 16.4223C99.8243 19.029 99.374 21.375 98.4735 23.4604C97.573 25.4983 96.2697 27.1571 94.5635 28.4368C94.3739 28.579 94.3028 28.7685 94.3502 29.0055L100.109 49.1245C100.156 49.2192 100.18 49.3377 100.18 49.4799C100.18 50.0486 99.848 50.333 99.1844 50.333H87.5965ZM81.9803 12.0146C81.6959 12.0146 81.5537 12.1568 81.5537 12.4412V20.6167C81.5537 20.9011 81.6959 21.0432 81.9803 21.0432H82.9045C83.9471 21.0432 84.8002 20.6641 85.4637 19.9058C86.1273 19.1001 86.459 17.9863 86.459 16.5645C86.459 15.0952 86.1273 13.9815 85.4637 13.2232C84.8476 12.4175 83.9945 12.0146 82.9045 12.0146H81.9803Z" fill="#F4EFE6"/>
<path d="M54.2371 50.333C53.5262 50.333 53.147 50.0013 53.0996 49.3377L52.3176 44.0059C52.3176 43.9111 52.2702 43.8163 52.1754 43.7215C52.0806 43.6267 51.9622 43.5793 51.82 43.5793H45.5639C45.4217 43.5793 45.3032 43.6267 45.2085 43.7215C45.1137 43.8163 45.0663 43.9111 45.0663 44.0059L44.3554 49.3377C44.308 50.0013 43.9288 50.333 43.2179 50.333H32.0565C31.2982 50.333 30.9901 49.9539 31.1323 49.1955L41.2273 1.49304C41.3695 0.876913 41.7724 0.568848 42.4359 0.568848H55.3746C56.0381 0.568848 56.4409 0.876913 56.5831 1.49304L66.6781 49.1955V49.4799C66.6781 50.0486 66.3464 50.333 65.6829 50.333H54.2371ZM46.6303 32.9156C46.6303 33.1999 46.7488 33.3421 46.9858 33.3421H50.3271C50.6588 33.3421 50.7773 33.1999 50.6825 32.9156L48.763 20.1191C48.7156 19.9295 48.6446 19.8347 48.5498 19.8347C48.455 19.8347 48.3839 19.9295 48.3365 20.1191L46.6303 32.9156Z" fill="#F4EFE6"/>
<path d="M15.5691 50.9016C10.877 50.9016 7.10917 49.5272 4.2655 46.7783C1.42183 44.0294 0 40.3564 0 35.7591V15.0003C0 10.4031 1.39814 6.75371 4.19441 4.05222C7.03807 1.35074 10.8296 0 15.5691 0C20.2611 0 24.029 1.35074 26.8727 4.05222C29.7163 6.75371 31.1382 10.4031 31.1382 15.0003V15.3558C31.1382 15.6876 31.0434 15.9719 30.8538 16.2089C30.6642 16.3985 30.4035 16.4933 30.0718 16.4933L18.8393 16.8487C18.1284 16.8487 17.7729 16.517 17.7729 15.8534V14.0761C17.7729 13.2704 17.5596 12.6306 17.1331 12.1567C16.7539 11.6827 16.2326 11.4458 15.5691 11.4458C14.9056 11.4458 14.3605 11.6827 13.934 12.1567C13.5548 12.6306 13.3652 13.2704 13.3652 14.0761V36.8966C13.3652 37.7023 13.5548 38.3421 13.934 38.816C14.3605 39.2426 14.9056 39.4559 15.5691 39.4559C16.2326 39.4559 16.7539 39.2426 17.1331 38.816C17.5596 38.3421 17.7729 37.7023 17.7729 36.8966V34.9771C17.7729 34.3136 18.1284 33.9818 18.8393 33.9818L30.0718 34.3373C30.4035 34.3373 30.6642 34.4558 30.8538 34.6927C31.0434 34.8823 31.1382 35.143 31.1382 35.4747V35.7591C31.1382 38.7924 30.4746 41.4701 29.1476 43.7925C27.8679 46.0674 26.0432 47.821 23.6735 49.0532C21.3512 50.2855 18.6497 50.9016 15.5691 50.9016Z" fill="#F4EFE6"/>
<path d="M509.052 51.3511C508.435 51.3511 508.056 51.043 507.914 50.4269L503.578 32.5829C503.483 32.3459 503.388 32.2274 503.293 32.2274C503.104 32.2274 503.009 32.3696 503.009 32.654V50.2847C503.009 50.6165 502.914 50.8771 502.724 51.0667C502.535 51.2563 502.274 51.3511 501.942 51.3511H490.71C490.378 51.3511 490.117 51.2563 489.928 51.0667C489.738 50.8771 489.644 50.6165 489.644 50.2847V2.65329C489.644 2.32153 489.738 2.06086 489.928 1.87128C490.117 1.6817 490.378 1.58691 490.71 1.58691H506.706C509.549 1.58691 512.061 2.27413 514.241 3.64858C516.469 4.97562 518.199 6.8477 519.431 9.26482C520.663 11.6345 521.279 14.3597 521.279 17.4404C521.279 20.047 520.829 22.3931 519.929 24.4784C519.028 26.5164 517.725 28.1752 516.019 29.4548C515.829 29.597 515.758 29.7866 515.805 30.0236L521.564 50.1425C521.611 50.2373 521.635 50.3558 521.635 50.498C521.635 51.0667 521.303 51.3511 520.64 51.3511H509.052ZM503.435 13.0327C503.151 13.0327 503.009 13.1749 503.009 13.4592V21.6348C503.009 21.9191 503.151 22.0613 503.435 22.0613H504.36C505.402 22.0613 506.255 21.6822 506.919 20.9238C507.582 20.1181 507.914 19.0044 507.914 17.5825C507.914 16.1133 507.582 14.9995 506.919 14.2412C506.303 13.4355 505.45 13.0327 504.36 13.0327H503.435Z" fill="#F4EFE6"/>
<path d="M487.914 11.9663C487.914 12.2981 487.819 12.5587 487.63 12.7483C487.44 12.9379 487.18 13.0327 486.848 13.0327H473.269C472.985 13.0327 472.843 13.1749 472.843 13.4592V20.284C472.843 20.5684 472.985 20.7106 473.269 20.7106H480.307C480.639 20.7106 480.9 20.8054 481.089 20.9949C481.279 21.1845 481.374 21.4452 481.374 21.7769V31.09C481.374 31.4217 481.279 31.6824 481.089 31.872C480.9 32.0615 480.639 32.1563 480.307 32.1563H473.269C472.985 32.1563 472.843 32.2985 472.843 32.5829V39.4788C472.843 39.7631 472.985 39.9053 473.269 39.9053H486.848C487.18 39.9053 487.44 40.0001 487.63 40.1897C487.819 40.3793 487.914 40.6399 487.914 40.9717V50.2847C487.914 50.6165 487.819 50.8771 487.63 51.0667C487.44 51.2563 487.18 51.3511 486.848 51.3511H460.544C460.212 51.3511 459.951 51.2563 459.762 51.0667C459.572 50.8771 459.478 50.6165 459.478 50.2847V2.65329C459.478 2.32153 459.572 2.06086 459.762 1.87128C459.951 1.6817 460.212 1.58691 460.544 1.58691H486.848C487.18 1.58691 487.44 1.6817 487.63 1.87128C487.819 2.06086 487.914 2.32153 487.914 2.65329V11.9663Z" fill="#F4EFE6"/>
<path d="M444.887 51.3511C444.555 51.3511 444.294 51.2563 444.105 51.0667C443.915 50.8771 443.82 50.6165 443.82 50.2847V2.65329C443.82 2.32153 443.915 2.06086 444.105 1.87128C444.294 1.6817 444.555 1.58691 444.887 1.58691H456.119C456.451 1.58691 456.712 1.6817 456.901 1.87128C457.091 2.06086 457.186 2.32153 457.186 2.65329V50.2847C457.186 50.6165 457.091 50.8771 456.901 51.0667C456.712 51.2563 456.451 51.3511 456.119 51.3511H444.887Z" fill="#F4EFE6"/>
<path d="M428.436 2.36892C428.72 1.84758 429.147 1.58691 429.715 1.58691H440.806C441.138 1.58691 441.398 1.6817 441.588 1.87128C441.777 2.06086 441.872 2.32153 441.872 2.65329V50.2847C441.872 50.6165 441.777 50.8771 441.588 51.0667C441.398 51.2563 441.138 51.3511 440.806 51.3511H429.573C429.242 51.3511 428.981 51.2563 428.791 51.0667C428.602 50.8771 428.507 50.6165 428.507 50.2847V21.3504C428.507 21.1608 428.436 21.0423 428.294 20.9949C428.199 20.9475 428.104 21.0186 428.009 21.2082L423.957 28.033L423.246 29.3127H423.175L418.483 21.2082C418.388 21.0186 418.27 20.9475 418.128 20.9949C418.033 20.9949 417.985 21.1134 417.985 21.3504V50.2847C417.985 50.6165 417.891 50.8771 417.701 51.0667C417.511 51.2563 417.251 51.3511 416.919 51.3511H405.686C405.355 51.3511 405.094 51.2563 404.904 51.0667C404.715 50.8771 404.62 50.6165 404.62 50.2847V2.65329C404.62 2.32153 404.715 2.06086 404.904 1.87128C405.094 1.6817 405.355 1.58691 405.686 1.58691H416.777C417.393 1.58691 417.819 1.84758 418.056 2.36892L423.033 11.4687C423.128 11.6108 423.222 11.7056 423.317 11.753C423.459 11.753 423.554 11.6582 423.602 11.4687L428.436 2.36892Z" fill="#F4EFE6"/>
<path d="M403.245 11.9663C403.245 12.2981 403.15 12.5587 402.961 12.7483C402.771 12.9379 402.511 13.0327 402.179 13.0327H388.6C388.316 13.0327 388.174 13.1749 388.174 13.4592V20.284C388.174 20.5684 388.316 20.7106 388.6 20.7106H395.638C395.97 20.7106 396.231 20.8054 396.42 20.9949C396.61 21.1845 396.705 21.4452 396.705 21.7769V31.09C396.705 31.4217 396.61 31.6824 396.42 31.872C396.231 32.0615 395.97 32.1563 395.638 32.1563H388.6C388.316 32.1563 388.174 32.2985 388.174 32.5829V39.4788C388.174 39.7631 388.316 39.9053 388.6 39.9053H402.179C402.511 39.9053 402.771 40.0001 402.961 40.1897C403.15 40.3793 403.245 40.6399 403.245 40.9717V50.2847C403.245 50.6165 403.15 50.8771 402.961 51.0667C402.771 51.2563 402.511 51.3511 402.179 51.3511H375.875C375.543 51.3511 375.283 51.2563 375.093 51.0667C374.903 50.8771 374.809 50.6165 374.809 50.2847V2.65329C374.809 2.32153 374.903 2.06086 375.093 1.87128C375.283 1.6817 375.543 1.58691 375.875 1.58691H402.179C402.511 1.58691 402.771 1.6817 402.961 1.87128C403.15 2.06086 403.245 2.32153 403.245 2.65329V11.9663Z" fill="#F4EFE6"/>
<path d="M360.787 51.3511C360.171 51.3511 359.792 51.043 359.649 50.4269L355.313 32.5829C355.218 32.3459 355.123 32.2274 355.029 32.2274C354.839 32.2274 354.744 32.3696 354.744 32.654V50.2847C354.744 50.6165 354.649 50.8771 354.46 51.0667C354.27 51.2563 354.01 51.3511 353.678 51.3511H342.445C342.114 51.3511 341.853 51.2563 341.663 51.0667C341.474 50.8771 341.379 50.6165 341.379 50.2847V2.65329C341.379 2.32153 341.474 2.06086 341.663 1.87128C341.853 1.6817 342.114 1.58691 342.445 1.58691H358.441C361.285 1.58691 363.796 2.27413 365.977 3.64858C368.204 4.97562 369.934 6.8477 371.166 9.26482C372.399 11.6345 373.015 14.3597 373.015 17.4404C373.015 20.047 372.564 22.3931 371.664 24.4784C370.763 26.5164 369.46 28.1752 367.754 29.4548C367.564 29.597 367.493 29.7866 367.541 30.0236L373.299 50.1425C373.346 50.2373 373.37 50.3558 373.37 50.498C373.37 51.0667 373.038 51.3511 372.375 51.3511H360.787ZM355.171 13.0327C354.886 13.0327 354.744 13.1749 354.744 13.4592V21.6348C354.744 21.9191 354.886 22.0613 355.171 22.0613H356.095C357.138 22.0613 357.991 21.6822 358.654 20.9238C359.318 20.1181 359.649 19.0044 359.649 17.5825C359.649 16.1133 359.318 14.9995 358.654 14.2412C358.038 13.4355 357.185 13.0327 356.095 13.0327H355.171Z" fill="#F4EFE6"/>
<path d="M325.494 1.58691C328.337 1.58691 330.849 2.27413 333.029 3.64858C335.257 4.97562 336.987 6.8477 338.219 9.26482C339.451 11.6819 340.067 14.4545 340.067 17.5825C340.067 20.6158 339.475 23.2936 338.29 25.6159C337.153 27.9382 335.541 29.7392 333.456 31.0189C331.371 32.2511 328.953 32.8672 326.205 32.8672H322.223C321.939 32.8672 321.797 33.0094 321.797 33.2938V50.2847C321.797 50.6165 321.702 50.8771 321.513 51.0667C321.323 51.2563 321.062 51.3511 320.73 51.3511H309.498C309.166 51.3511 308.906 51.2563 308.716 51.0667C308.526 50.8771 308.432 50.6165 308.432 50.2847V2.65329C308.432 2.32153 308.526 2.06086 308.716 1.87128C308.906 1.6817 309.166 1.58691 309.498 1.58691H325.494ZM323.148 22.559C324.238 22.559 325.091 22.1798 325.707 21.4215C326.37 20.6158 326.702 19.4309 326.702 17.8669C326.702 16.3029 326.37 15.118 325.707 14.3123C325.091 13.4592 324.238 13.0327 323.148 13.0327H322.223C321.939 13.0327 321.797 13.1749 321.797 13.4592V22.1324C321.797 22.4168 321.939 22.559 322.223 22.559H323.148Z" fill="#F4EFE6"/>
<path d="M346.231 73.3736C346.231 73.5045 346.165 73.57 346.034 73.57H341.479C341.426 73.57 341.4 73.5962 341.4 73.6485V78.5183C341.4 78.5707 341.426 78.5969 341.479 78.5969H344.345C344.476 78.5969 344.542 78.6623 344.542 78.7932V79.6376C344.542 79.7685 344.476 79.834 344.345 79.834H341.479C341.426 79.834 341.4 79.8601 341.4 79.9125V84.8019C341.4 84.8543 341.426 84.8805 341.479 84.8805H346.034C346.165 84.8805 346.231 84.9459 346.231 85.0769V85.9016C346.231 86.0325 346.165 86.0979 346.034 86.0979H340.202C340.071 86.0979 340.006 86.0325 340.006 85.9016V72.5489C340.006 72.418 340.071 72.3525 340.202 72.3525H346.034C346.165 72.3525 346.231 72.418 346.231 72.5489V73.3736Z" fill="#F4EFE6"/>
<path d="M328.873 86.255C327.865 86.255 327.054 85.9081 326.439 85.2143C325.823 84.5205 325.516 83.6041 325.516 82.4652V72.5489C325.516 72.418 325.581 72.3525 325.712 72.3525H326.713C326.844 72.3525 326.91 72.418 326.91 72.5489V82.6223C326.91 83.3423 327.087 83.9249 327.44 84.3699C327.807 84.815 328.284 85.0376 328.873 85.0376C329.476 85.0376 329.96 84.815 330.327 84.3699C330.693 83.9249 330.876 83.3423 330.876 82.6223V72.5489C330.876 72.418 330.942 72.3525 331.073 72.3525H332.074C332.205 72.3525 332.27 72.418 332.27 72.5489V82.4652C332.27 83.6041 331.956 84.5205 331.328 85.2143C330.713 85.9081 329.895 86.255 328.873 86.255Z" fill="#F4EFE6"/>
<path d="M314.477 86.2549C313.469 86.2549 312.664 85.9603 312.061 85.3713C311.459 84.7691 311.158 83.9705 311.158 82.9756V75.4746C311.158 74.4797 311.459 73.6877 312.061 73.0986C312.664 72.4964 313.469 72.1953 314.477 72.1953C315.485 72.1953 316.29 72.4964 316.892 73.0986C317.507 73.7008 317.815 74.4993 317.815 75.4942V76.3386C317.815 76.4695 317.749 76.5349 317.619 76.5349H316.617C316.486 76.5349 316.421 76.4695 316.421 76.3386V75.4549C316.421 74.8397 316.244 74.3488 315.891 73.9822C315.537 73.6026 315.066 73.4128 314.477 73.4128C313.901 73.4128 313.429 73.6026 313.063 73.9822C312.709 74.3618 312.533 74.8528 312.533 75.4549V82.9953C312.533 83.5974 312.709 84.0884 313.063 84.468C313.429 84.8476 313.901 85.0374 314.477 85.0374C315.066 85.0374 315.537 84.8542 315.891 84.4876C316.244 84.108 316.421 83.6105 316.421 82.9953V80.4818C316.421 80.4295 316.395 80.4033 316.342 80.4033H314.653C314.523 80.4033 314.457 80.3378 314.457 80.2069V79.3822C314.457 79.2513 314.523 79.1858 314.653 79.1858H317.619C317.749 79.1858 317.815 79.2513 317.815 79.3822V82.9756C317.815 83.9705 317.507 84.7691 316.892 85.3713C316.29 85.9603 315.485 86.2549 314.477 86.2549Z" fill="#F4EFE6"/>
<path d="M303.512 86.0979C303.394 86.0979 303.322 86.039 303.296 85.9212L302.805 83.4863C302.805 83.4601 302.792 83.4405 302.766 83.4274C302.753 83.4143 302.733 83.4078 302.707 83.4078H299.153C299.127 83.4078 299.101 83.4143 299.074 83.4274C299.061 83.4405 299.055 83.4601 299.055 83.4863L298.564 85.9212C298.551 86.039 298.479 86.0979 298.348 86.0979H297.346C297.281 86.0979 297.229 86.0783 297.189 86.039C297.163 85.9998 297.157 85.9474 297.17 85.8819L300.115 72.5293C300.141 72.4114 300.213 72.3525 300.331 72.3525H301.509C301.64 72.3525 301.712 72.4114 301.725 72.5293L304.71 85.8819V85.9212C304.71 86.039 304.651 86.0979 304.533 86.0979H303.512ZM299.31 82.1903C299.31 82.2427 299.33 82.2689 299.369 82.2689H302.471C302.511 82.2689 302.53 82.2427 302.53 82.1903L300.959 74.4733C300.946 74.434 300.933 74.4143 300.92 74.4143C300.907 74.4143 300.894 74.434 300.881 74.4733L299.31 82.1903Z" fill="#F4EFE6"/>
<path d="M290.353 73.3736C290.353 73.5045 290.287 73.57 290.156 73.57H285.601C285.548 73.57 285.522 73.5962 285.522 73.6485V78.5183C285.522 78.5707 285.548 78.5969 285.601 78.5969H288.468C288.598 78.5969 288.664 78.6623 288.664 78.7932V79.6376C288.664 79.7685 288.598 79.834 288.468 79.834H285.601C285.548 79.834 285.522 79.8601 285.522 79.9125V84.8019C285.522 84.8543 285.548 84.8805 285.601 84.8805H290.156C290.287 84.8805 290.353 84.9459 290.353 85.0769V85.9016C290.353 86.0325 290.287 86.0979 290.156 86.0979H284.324C284.193 86.0979 284.128 86.0325 284.128 85.9016V72.5489C284.128 72.418 284.193 72.3525 284.324 72.3525H290.156C290.287 72.3525 290.353 72.418 290.353 72.5489V73.3736Z" fill="#F4EFE6"/>
<path d="M271.237 86.0979C271.106 86.0979 271.041 86.0325 271.041 85.9016V72.5489C271.041 72.418 271.106 72.3525 271.237 72.3525H272.239C272.37 72.3525 272.435 72.418 272.435 72.5489V84.8019C272.435 84.8543 272.461 84.8805 272.514 84.8805H277.01C277.141 84.8805 277.207 84.9459 277.207 85.0769V85.9016C277.207 86.0325 277.141 86.0979 277.01 86.0979H271.237Z" fill="#F4EFE6"/>
<path d="M253.299 86.0979C253.181 86.0979 253.103 86.0456 253.063 85.9409L251.06 79.8732C251.047 79.834 251.021 79.8143 250.982 79.8143H249.274C249.221 79.8143 249.195 79.8405 249.195 79.8929V85.9016C249.195 86.0325 249.13 86.0979 248.999 86.0979H247.997C247.866 86.0979 247.801 86.0325 247.801 85.9016V72.5489C247.801 72.418 247.866 72.3525 247.997 72.3525H251.237C252.193 72.3525 252.965 72.706 253.554 73.4129C254.143 74.1067 254.438 75.0165 254.438 76.1423C254.438 76.9932 254.255 77.7263 253.888 78.3416C253.521 78.9569 253.024 79.3889 252.396 79.6376C252.343 79.6507 252.324 79.6834 252.337 79.7358L254.477 85.8819L254.497 85.9605C254.497 86.0521 254.438 86.0979 254.32 86.0979H253.299ZM249.274 73.57C249.221 73.57 249.195 73.5962 249.195 73.6485V78.6165C249.195 78.6689 249.221 78.6951 249.274 78.6951H251.041C251.643 78.6951 252.127 78.466 252.494 78.0078C252.86 77.5365 253.044 76.9147 253.044 76.1423C253.044 75.37 252.86 74.7482 252.494 74.2769C252.127 73.8056 251.643 73.57 251.041 73.57H249.274Z" fill="#F4EFE6"/>
<path d="M240.305 73.3736C240.305 73.5045 240.239 73.57 240.108 73.57H235.553C235.5 73.57 235.474 73.5962 235.474 73.6485V78.5183C235.474 78.5707 235.5 78.5969 235.553 78.5969H238.42C238.551 78.5969 238.616 78.6623 238.616 78.7932V79.6376C238.616 79.7685 238.551 79.834 238.42 79.834H235.553C235.5 79.834 235.474 79.8601 235.474 79.9125V84.8019C235.474 84.8543 235.5 84.8805 235.553 84.8805H240.108C240.239 84.8805 240.305 84.9459 240.305 85.0769V85.9016C240.305 86.0325 240.239 86.0979 240.108 86.0979H234.276C234.146 86.0979 234.08 86.0325 234.08 85.9016V72.5489C234.08 72.418 234.146 72.3525 234.276 72.3525H240.108C240.239 72.3525 240.305 72.418 240.305 72.5489V73.3736Z" fill="#F4EFE6"/>
<path d="M223.02 86.2549C222.012 86.2549 221.2 85.9473 220.585 85.332C219.983 84.7167 219.682 83.892 219.682 82.8578V75.5728C219.682 74.5517 219.983 73.7335 220.585 73.1182C221.2 72.5029 222.012 72.1953 223.02 72.1953C224.041 72.1953 224.853 72.5029 225.455 73.1182C226.07 73.7204 226.378 74.5386 226.378 75.5728V75.9066C226.378 76.0375 226.312 76.1029 226.181 76.1029L225.16 76.1618C225.029 76.1618 224.964 76.0964 224.964 75.9655V75.4746C224.964 74.8593 224.787 74.3618 224.434 73.9822C224.08 73.6026 223.609 73.4128 223.02 73.4128C222.444 73.4128 221.973 73.6026 221.606 73.9822C221.253 74.3618 221.076 74.8593 221.076 75.4746V82.9756C221.076 83.5909 221.253 84.0884 221.606 84.468C221.973 84.8476 222.444 85.0374 223.02 85.0374C223.609 85.0374 224.08 84.8476 224.434 84.468C224.787 84.0884 224.964 83.5909 224.964 82.9756V82.4847C224.964 82.3538 225.029 82.2884 225.16 82.2884L226.181 82.3473C226.312 82.3473 226.378 82.4127 226.378 82.5436V82.8578C226.378 83.892 226.07 84.7167 225.455 85.332C224.839 85.9473 224.028 86.2549 223.02 86.2549Z" fill="#F4EFE6"/>
<path d="M208.954 86.2549C207.946 86.2549 207.135 85.9473 206.519 85.332C205.917 84.7167 205.616 83.892 205.616 82.8578V75.5728C205.616 74.5517 205.917 73.7335 206.519 73.1182C207.135 72.5029 207.946 72.1953 208.954 72.1953C209.975 72.1953 210.787 72.5029 211.389 73.1182C212.005 73.7204 212.312 74.5386 212.312 75.5728V75.9066C212.312 76.0375 212.247 76.1029 212.116 76.1029L211.095 76.1618C210.964 76.1618 210.898 76.0964 210.898 75.9655V75.4746C210.898 74.8593 210.722 74.3618 210.368 73.9822C210.015 73.6026 209.543 73.4128 208.954 73.4128C208.378 73.4128 207.907 73.6026 207.541 73.9822C207.187 74.3618 207.01 74.8593 207.01 75.4746V82.9756C207.01 83.5909 207.187 84.0884 207.541 84.468C207.907 84.8476 208.378 85.0374 208.954 85.0374C209.543 85.0374 210.015 84.8476 210.368 84.468C210.722 84.0884 210.898 83.5909 210.898 82.9756V82.4847C210.898 82.3538 210.964 82.2884 211.095 82.2884L212.116 82.3473C212.247 82.3473 212.312 82.4127 212.312 82.5436V82.8578C212.312 83.892 212.005 84.7167 211.389 85.332C210.774 85.9473 209.962 86.2549 208.954 86.2549Z" fill="#F4EFE6"/>
<path d="M194.736 86.2549C193.728 86.2549 192.91 85.9407 192.281 85.3124C191.666 84.684 191.358 83.8527 191.358 82.8185V75.6317C191.358 74.5975 191.666 73.7662 192.281 73.1379C192.91 72.5095 193.728 72.1953 194.736 72.1953C195.757 72.1953 196.582 72.5095 197.21 73.1379C197.838 73.7662 198.153 74.5975 198.153 75.6317V82.8185C198.153 83.8396 197.838 84.6709 197.21 85.3124C196.582 85.9407 195.757 86.2549 194.736 86.2549ZM194.736 85.0374C195.338 85.0374 195.822 84.8411 196.189 84.4484C196.569 84.0425 196.758 83.5254 196.758 82.8971V75.5728C196.758 74.9313 196.569 74.4142 196.189 74.0215C195.822 73.6157 195.338 73.4128 194.736 73.4128C194.147 73.4128 193.669 73.6157 193.302 74.0215C192.936 74.4142 192.753 74.9313 192.753 75.5728V82.8971C192.753 83.5254 192.936 84.0425 193.302 84.4484C193.669 84.8411 194.147 85.0374 194.736 85.0374Z" fill="#F4EFE6"/>
<path d="M180.893 86.2549C179.924 86.2549 179.138 85.9342 178.536 85.2927C177.934 84.6513 177.633 83.8134 177.633 82.7793V82.3276C177.633 82.1967 177.698 82.1313 177.829 82.1313H178.791C178.922 82.1313 178.988 82.1967 178.988 82.3276V82.7204C178.988 83.4142 179.165 83.9771 179.518 84.4091C179.871 84.828 180.33 85.0374 180.893 85.0374C181.442 85.0374 181.901 84.8345 182.267 84.4287C182.634 84.0229 182.817 83.4862 182.817 82.8185C182.817 82.3735 182.725 81.9938 182.542 81.6796C182.372 81.3524 182.143 81.0709 181.855 80.8353C181.58 80.5866 181.115 80.2135 180.461 79.716C179.806 79.2316 179.289 78.8193 178.909 78.4789C178.53 78.1255 178.215 77.7066 177.967 77.2222C177.731 76.7378 177.613 76.1684 177.613 75.5138C177.613 74.4928 177.908 73.6877 178.497 73.0986C179.086 72.4964 179.852 72.1953 180.794 72.1953C181.789 72.1953 182.581 72.5226 183.17 73.1771C183.773 73.8186 184.074 74.676 184.074 75.7495V76.2404C184.074 76.3713 184.008 76.4367 183.877 76.4367H182.895C182.765 76.4367 182.699 76.3713 182.699 76.2404V75.7298C182.699 75.036 182.522 74.4797 182.169 74.0608C181.829 73.6288 181.37 73.4128 180.794 73.4128C180.271 73.4128 179.839 73.6026 179.498 73.9822C179.158 74.3488 178.988 74.8724 178.988 75.5531C178.988 75.9589 179.06 76.3189 179.204 76.6331C179.361 76.9342 179.59 77.2222 179.891 77.4971C180.192 77.772 180.637 78.132 181.226 78.5771C182.012 79.1531 182.594 79.6244 182.974 79.9909C183.367 80.3444 183.668 80.7371 183.877 81.1691C184.087 81.588 184.191 82.0985 184.191 82.7007C184.191 83.7742 183.884 84.6382 183.269 85.2927C182.653 85.9342 181.861 86.2549 180.893 86.2549Z" fill="#F4EFE6"/>
<rect x="357.32" y="77.0161" width="164.68" height="4.41816" fill="#CEA538"/>
<rect x="1.84375" y="77.0161" width="164.68" height="4.41816" fill="#CEA538"/>
</svg>
